<?xml version="1.0" encoding="utf-8"?>
<!-- Generator: Adobe Illustrator 16.0.0, SVG Export Plug-In . SVG Version: 6.00 Build 0)  -->
<!DOCTYPE svg PUBLIC "-//W3C//DTD SVG 1.1//EN" "http://www.w3.org/Graphics/SVG/1.1/DTD/svg11.dtd">
<svg version="1.1" id="Capa_1" xmlns="http://www.w3.org/2000/svg" xmlns:xlink="http://www.w3.org/1999/xlink" x="0px" y="0px"
	 width="60px" height="50.5px" viewBox="0 0.125 60 50.5" enable-background="new 0 0.125 60 50.5" xml:space="preserve">
<g>
	<g>
		<polygon fill="#FFFFFF" points="39.771,30.309 60,43.096 60,16.98 		"/>
	</g>
</g>
<g>
	<g>
		<polygon fill="#FFFFFF" points="0,16.98 0,43.096 20.228,30.309 		"/>
	</g>
</g>
<g>
	<g>
		<path fill="#FFFFFF" d="M56.25,9.375H3.75c-1.871,0-3.356,1.395-3.638,3.191L30,32.258l29.889-19.691
			C59.605,10.77,58.121,9.375,56.25,9.375z"/>
	</g>
</g>
<g>
	<g>
		<path fill="#FFFFFF" d="M36.338,32.572l-5.307,3.494c-0.314,0.207-0.671,0.309-1.031,0.309s-0.716-0.102-1.031-0.309l-5.306-3.498
			L0.12,47.46c0.289,1.781,1.766,3.165,3.63,3.165h52.5c1.863,0,3.342-1.384,3.63-3.165L36.338,32.572z"/>
	</g>
</g>
</svg>
